# Blender v3.6.3 OBJ File: ''
# www.blender.org
o Cube_Cube.001
v -0.5 -0.5 0.5
v -0.5 0.5 0.5
v -0.5 -0.5 -0.5
v -0.5 0.5 -0.5
v 0.5 -0.5 0.5
v 0.5 0.5 0.5
v 0.5 -0.5 -0.5
v 0.5 0.5 -0.5
vt 0 1
vt 0 0
vt 1 0
vt 1 1
vt 0 1
vt 0 0
vt 1 0
vt 1 1
vt 1 0
vt 1 1
vt 0 1
vt 0 0
vt 1 0
vt 1 1
vt 0 1
vt 0 0
vt 0 0
vt 1 1
vt 1 1
vt 0 0
vn -1 0 0
vn 0 0 -1
vn 1 0 0
vn 0 0 1
vn 0 -1 0
vn 0 1 0
s off
f 1/1/1 2/2/1 4/3/1 3/4/1
f 3/5/2 4/6/2 8/7/2 7/8/2
f 7/9/3 8/10/3 6/11/3 5/12/3
f 5/13/4 6/14/4 2/15/4 1/16/4
f 3/5/5 7/17/5 5/13/5 1/18/5
f 8/7/6 4/19/6 2/15/6 6/20/6
